HIERARCHY
ROOT root
{
	OFFSET	0	13.1	24.9
	CHANNELS 6  Xposition Yposition Zposition Xrotation Yrotation Zrotation
	JOINT spine_1
	{
		OFFSET	0	9.99999	0
		CHANNELS 3  Xrotation Yrotation Zrotation
		JOINT spine_2
		{
			OFFSET	0	112	-10
			CHANNELS 3  Xrotation Yrotation Zrotation
			JOINT spine_3
			{
				OFFSET	0	206.5	19.3
				CHANNELS 3  Xrotation Yrotation Zrotation
				JOINT spine_4
				{
					OFFSET	0	110.4	14.6
					CHANNELS 3  Xrotation Yrotation Zrotation
					JOINT neck_1
					{
						OFFSET	0	71.8	-50.3
						CHANNELS 3  Xrotation Yrotation Zrotation
						JOINT neck_2
						{
							OFFSET	0	86.2	-25.8
							CHANNELS 3  Xrotation Yrotation Zrotation
							JOINT head_ee
							{
								OFFSET	0	179.8	-8.7
								CHANNELS 3  Xrotation Yrotation Zrotation
								End Site
								{
									OFFSET	1	0	0
								}
							}
						}
					}
					JOINT left_clavicle
					{
						OFFSET	-43.2	22.4	-70.8
						CHANNELS 3  Xrotation Yrotation Zrotation
						JOINT left_shoulder
						{
							OFFSET	-93.9	-5.79999	48.7
							CHANNELS 3  Xrotation Yrotation Zrotation
							JOINT left_elbow
							{
								OFFSET	-291.4	-30.8	15.2
								CHANNELS 3  Xrotation Yrotation Zrotation
								JOINT left_lowarm_twist
								{
									OFFSET	-110.7	-3.89999	13.6
									CHANNELS 3  Xrotation Yrotation Zrotation
									JOINT left_hand
									{
										OFFSET	-110.7	-3.89999	13.6
										CHANNELS 3  Xrotation Yrotation Zrotation
										JOINT left_ee
										{
											OFFSET	-80.8	-5.10001	12.1
											CHANNELS 3  Xrotation Yrotation Zrotation
											End Site
											{
												OFFSET	1	0	0
											}
										}
									}
								}
							}
						}
					}
					JOINT right_clavicle
					{
						OFFSET	43.2	22.4	-70.8
						CHANNELS 3  Xrotation Yrotation Zrotation
						JOINT right_shoulder
						{
							OFFSET	93.9	-5.79999	48.7
							CHANNELS 3  Xrotation Yrotation Zrotation
							JOINT right_elbow
							{
								OFFSET	291.4	-30.8	15.2
								CHANNELS 3  Xrotation Yrotation Zrotation
								JOINT right_lowarm_twist
								{
									OFFSET	110.7	-3.89999	13.6
									CHANNELS 3  Xrotation Yrotation Zrotation
									JOINT right_hand
									{
										OFFSET	110.7	-3.89999	13.6
										CHANNELS 3  Xrotation Yrotation Zrotation
										JOINT right_ee
										{
											OFFSET	80.8	-5.10001	12.1
											CHANNELS 3  Xrotation Yrotation Zrotation
											End Site
											{
												OFFSET	1	0	0
											}
										}
									}
								}
							}
						}
					}
				}
			}
		}
	}
	JOINT left_hip
	{
		OFFSET	-82.8	-127.5	0.300001
		CHANNELS 3  Xrotation Yrotation Zrotation
		JOINT left_knee
		{
			OFFSET	-28.2	-396.7	2.2
			CHANNELS 3  Xrotation Yrotation Zrotation
			JOINT left_ankle
			{
				OFFSET	-11.7	-411.3	35.4
				CHANNELS 3  Xrotation Yrotation Zrotation
				JOINT left_toes
				{
					OFFSET	0	-60	-88.6
					CHANNELS 3  Xrotation Yrotation Zrotation
					JOINT left_foot_ee
					{
						OFFSET	-22.5	-16.5	-42.2
						CHANNELS 3  Xrotation Yrotation Zrotation
						End Site
						{
							OFFSET	1	0	0
						}
					}
				}
			}
		}
	}
	JOINT right_hip
	{
		OFFSET	82.8	-127.5	0.300001
		CHANNELS 3  Xrotation Yrotation Zrotation
		JOINT right_knee
		{
			OFFSET	28.2	-396.7	2.2
			CHANNELS 3  Xrotation Yrotation Zrotation
			JOINT right_ankle
			{
				OFFSET	11.7	-411.3	35.4
				CHANNELS 3  Xrotation Yrotation Zrotation
				JOINT right_toes
				{
					OFFSET	0	-60	-88.6
					CHANNELS 3  Xrotation Yrotation Zrotation
					JOINT right_foot_ee
					{
						OFFSET	22.5	-16.5	-42.2
						CHANNELS 3  Xrotation Yrotation Zrotation
						End Site
						{
							OFFSET	1	0	0
						}
					}
				}
			}
		}
	}
}
MOTION
Frames: 14
Frame Time: 0.02
3177.02 653.055 -1669.29 -20.8943730642 19.9418525749 11.3846123719 7.28642 0.0466096 -0.314508 7.28648 0.066528 -0.310905 7.28604 0.0925594 -0.304172 7.28592 0.0433597 -0.314973 -9.12602 2.13432 -2.0627 -9.11862 5.42547 -1.52429 -0.0 0.0 -0.0 3.42315 18.6129 7.34689 -24.2559 26.0889 63.8348 0.192592 -5.44992 0.00916649 84.1444 -4.32437 -8.82592 -3.28905 3.88342 -20.5241 -0.0 0.0 -0.0 9.22709 15.56 -17.9561 -6.45315 10.5428 -58.1082 1.39638 34.6707 -0.435889 -39.5533 2.90378 -4.02839 -5.19069 22.376 48.5613 0.0 0.0 0.0 47.5733 -17.8048 -1.49791 -3.06904 0.11414 0.457114 35.4557 26.0679 -4.74195 -22.3105 0.0 0.0 -0.0 0.0 -0.0 10.2651 -3.52461 -1.72076 -17.8814 -0.314839 -2.71488 35.7324 5.95941 4.55899 14.0353 -0.0 -0.0 0.0 0.0 0.0 
3160.78697521 661.926 -1689.85529616 -20.8657608483 19.3994105774 10.8140521395 7.22958 0.128172 -0.549353 7.22973 0.162868 -0.540084 7.228 0.208456 -0.524178 7.22764 0.123057 -0.550521 -9.34 3.54421 0.172392 -9.35025 6.53512 1.01415 -0.0 0.0 -0.0 4.41858 23.6098 8.79711 -23.3896 22.9677 60.7044 0.265426 -7.4907 0.0173754 84.773 -4.39936 -8.85561 -3.22693 -0.43605 -22.3338 -0.0 0.0 -0.0 10.2985 15.0087 -20.3571 -9.25189 10.4672 -55.5374 1.35744 33.9165 -0.413947 -37.2991 2.66861 -3.86001 -4.46827 19.59 41.0616 0.0 0.0 0.0 47.5769 -17.6941 -1.21719 -8.03865 0.246559 1.20804 41.067 24.2831 -5.24575 -14.343 0.0 0.0 -0.0 0.0 -0.0 11.7841 -4.12471 -1.11356 -20.9145 -0.283647 -3.17917 35.0378 4.20213 4.46641 15.0905 -0.0 -0.0 0.0 0.0 0.0 
3160.59919482 661.926 -1689.70567185 -20.9326224785 19.8899369487 11.0129329948 7.22958 0.128172 -0.549353 7.22973 0.162868 -0.540084 7.228 0.208456 -0.524178 7.22764 0.123057 -0.550521 -9.34 3.54421 0.172392 -9.35025 6.53512 1.01415 -0.0 0.0 -0.0 4.41858 23.6098 8.79711 -23.3896 22.9677 60.7044 0.265426 -7.4907 0.0173754 84.773 -4.39936 -8.85561 -3.22693 -0.43605 -22.3338 -0.0 0.0 -0.0 10.2985 15.0087 -20.3571 -9.25189 10.4672 -55.5374 1.35744 33.9165 -0.413947 -37.2991 2.66861 -3.86001 -4.46827 19.59 41.0616 0.0 0.0 0.0 47.5769 -17.6941 -1.21719 -8.03865 0.246559 1.20804 41.067 24.2831 -5.24575 -14.343 0.0 0.0 -0.0 0.0 -0.0 11.7841 -4.12471 -1.11356 -20.9145 -0.283647 -3.17917 35.0378 4.20213 4.46641 15.0905 -0.0 -0.0 0.0 0.0 0.0 
3160.4320144 661.926 -1689.57006986 -20.9942882048 20.3295240768 11.1922866568 7.22958 0.128172 -0.549353 7.22973 0.162868 -0.540084 7.228 0.208456 -0.524178 7.22764 0.123057 -0.550521 -9.34 3.54421 0.172392 -9.35025 6.53512 1.01415 -0.0 0.0 -0.0 4.41858 23.6098 8.79711 -23.3896 22.9677 60.7044 0.265426 -7.4907 0.0173754 84.773 -4.39936 -8.85561 -3.22693 -0.43605 -22.3338 -0.0 0.0 -0.0 10.2985 15.0087 -20.3571 -9.25189 10.4672 -55.5374 1.35744 33.9165 -0.413947 -37.2991 2.66861 -3.86001 -4.46827 19.59 41.0616 0.0 0.0 0.0 47.5769 -17.6941 -1.21719 -8.03865 0.246559 1.20804 41.067 24.2831 -5.24575 -14.343 0.0 0.0 -0.0 0.0 -0.0 11.7841 -4.12471 -1.11356 -20.9145 -0.283647 -3.17917 35.0378 4.20213 4.46641 15.0905 -0.0 -0.0 0.0 0.0 0.0 
3110.71450284 673.36 -1764.15781302 -19.1506137343 19.8874619062 11.0784038889 7.10313 -0.216177 -0.820455 7.10349 -0.163534 -0.832547 7.10533 -0.0899596 -0.843673 7.1044 -0.222069 -0.81888 -11.5169 7.93712 3.36082 -11.5664 12.8435 5.41506 -0.0 0.0 -0.0 6.90082 24.3102 12.2226 -15.0521 22.8946 56.305 0.374626 -10.5135 0.0344678 85.2657 -4.45836 -8.87831 -2.90294 -16.6015 -27.4281 -0.0 0.0 -0.0 11.4399 10.8153 -23.0141 -18.4223 6.80707 -52.5605 1.45909 35.8569 -0.472097 -32.9843 2.2378 -3.51263 -2.84601 10.0234 24.1584 0.0 0.0 0.0 44.502 -16.9974 0.0732585 -13.2406 0.314921 2.00304 35.7226 25.5912 -4.75566 12.6454 -0.0 -0.0 -0.0 0.0 -0.0 15.9058 -2.30872 1.56644 -38.3655 0.366069 -5.7681 40.6381 -4.53847 4.91266 18.4781 -0.0 -0.0 0.0 0.0 0.0 
3094.60462299 675.801 -1790.35694566 -18.1007491881 21.0360024095 11.2018685972 7.08005 -0.220886 -0.948312 7.08053 -0.160097 -0.960444 7.0825 -0.0749442 -0.970807 7.08125 -0.227318 -0.946791 -12.6151 8.55212 3.0086 -12.715 14.3514 5.38699 -0.0 0.0 -0.0 7.33593 24.1722 12.8509 -14.0645 22.6245 56.3662 0.414342 -11.5992 0.0420846 84.8517 -4.40877 -8.85927 -2.65793 -20.9262 -27.3316 -0.0 0.0 -0.0 11.0385 9.60398 -22.1237 -18.2227 6.33671 -54.5223 1.322 33.2184 -0.394352 -31.6931 2.11412 -3.40251 -2.81512 5.62107 21.894 0.0 0.0 0.0 42.0001 -16.9811 0.593205 -14.6691 0.321039 2.22212 30.8644 25.4965 -4.21914 20.8103 -0.0 -0.0 -0.0 0.0 -0.0 18.0212 -1.11065 2.17733 -44.7052 0.792917 -6.64403 40.2505 -9.37762 4.89401 20.1433 -0.0 -0.0 0.0 0.0 0.0 
3093.31158663 675.801 -1789.46654193 -18.1754037544 21.6196745627 11.4071276952 7.08005 -0.220886 -0.948312 7.08053 -0.160097 -0.960444 7.0825 -0.0749442 -0.970807 7.08125 -0.227318 -0.946791 -12.6151 8.55212 3.0086 -12.715 14.3514 5.38699 -0.0 0.0 -0.0 7.33593 24.1722 12.8509 -14.0645 22.6245 56.3662 0.414342 -11.5992 0.0420846 84.8517 -4.40877 -8.85927 -2.65793 -20.9262 -27.3316 -0.0 0.0 -0.0 11.0385 9.60398 -22.1237 -18.2227 6.33671 -54.5223 1.322 33.2184 -0.394352 -31.6931 2.11412 -3.40251 -2.81512 5.62107 21.894 0.0 0.0 0.0 42.0001 -16.9811 0.593205 -14.6691 0.321039 2.22212 30.8644 25.4965 -4.21914 20.8103 -0.0 -0.0 -0.0 0.0 -0.0 18.0212 -1.11065 2.17733 -44.7052 0.792917 -6.64403 40.2505 -9.37762 4.89401 20.1433 -0.0 -0.0 0.0 0.0 0.0 
3086.61161585 676.887 -1814.76815017 -16.9994740111 20.9141958598 10.5758951771 6.93652 -0.214276 -0.949158 6.93701 -0.153448 -0.960868 6.93888 -0.0658488 -0.970812 6.93763 -0.218337 -0.948232 -14.2023 9.30335 3.52633 -14.3583 15.6272 6.32725 -0.0 0.0 -0.0 7.64922 22.9825 13.4345 -9.5937 22.2766 55.7359 0.459383 -12.8204 0.051611 84.9604 -4.42178 -8.8643 -2.61419 -24.3376 -28.2788 -0.0 0.0 -0.0 10.5931 8.44479 -21.1408 -18.8145 5.85311 -56.9257 1.17716 30.2467 -0.318147 -30.7855 2.02868 -3.32346 -2.80914 2.48104 20.3426 0.0 0.0 0.0 40.0301 -16.5809 0.535081 -16.8116 0.319972 2.55082 27.3502 24.5392 -3.78501 27.4033 -0.0 -0.0 -0.0 0.0 -0.0 19.0682 -0.272744 0.895242 -49.413 1.17143 -7.26169 39.6628 -13.1776 4.87762 22.2962 -0.0 -0.0 0.0 0.0 0.0 
3063.16439861 683.061 -1843.12662253 -15.990894461 21.5926738303 10.651760758 6.80469 -0.255637 -0.927063 6.80514 -0.19613 -0.94145 6.80772 -0.107932 -0.955585 6.80653 -0.257488 -0.926551 -14.7484 9.81923 3.53071 -14.9484 16.669 6.58726 -0.0 0.0 -0.0 8.01236 22.1768 14.065 -6.7688 21.9464 56.5162 0.531182 -14.7424 0.0687173 85.2096 -4.45164 -8.87575 -2.5314 -26.9642 -28.6011 -0.0 0.0 -0.0 10.1726 7.66481 -20.2213 -19.7801 5.29277 -58.5028 1.03139 27.0627 -0.248218 -29.2207 1.88437 -3.18406 -2.71751 0.242893 18.5945 0.0 0.0 0.0 37.4035 -16.1224 1.32641 -19.4729 0.301537 2.9587 24.7724 23.1723 -3.44542 32.343 -0.0 -0.0 -0.0 0.0 -0.0 20.8909 2.08626 -0.553187 -53.0566 1.49867 -7.71753 38.8804 -17.5497 4.87316 23.1941 -0.0 -0.0 0.0 0.0 0.0 
3061.12617054 683.061 -1841.77446189 -16.0658155102 22.2408631711 10.8524785492 6.80469 -0.255637 -0.927063 6.80514 -0.19613 -0.94145 6.80772 -0.107932 -0.955585 6.80653 -0.257488 -0.926551 -14.7484 9.81923 3.53071 -14.9484 16.669 6.58726 -0.0 0.0 -0.0 8.01236 22.1768 14.065 -6.7688 21.9464 56.5162 0.531182 -14.7424 0.0687173 85.2096 -4.45164 -8.87575 -2.5314 -26.9642 -28.6011 -0.0 0.0 -0.0 10.1726 7.66481 -20.2213 -19.7801 5.29277 -58.5028 1.03139 27.0627 -0.248218 -29.2207 1.88437 -3.18406 -2.71751 0.242893 18.5945 0.0 0.0 0.0 37.4035 -16.1224 1.32641 -19.4729 0.301537 2.9587 24.7724 23.1723 -3.44542 32.343 -0.0 -0.0 -0.0 0.0 -0.0 20.8909 2.08626 -0.553187 -53.0566 1.49867 -7.71753 38.8804 -17.5497 4.87316 23.1941 -0.0 -0.0 0.0 0.0 0.0 
3057.39109385 683.061 -1839.20525568 -16.2121717248 23.4415821235 11.2294897472 6.80469 -0.255637 -0.927063 6.80514 -0.19613 -0.94145 6.80772 -0.107932 -0.955585 6.80653 -0.257488 -0.926551 -14.7484 9.81923 3.53071 -14.9484 16.669 6.58726 -0.0 0.0 -0.0 8.01236 22.1768 14.065 -6.7688 21.9464 56.5162 0.531182 -14.7424 0.0687173 85.2096 -4.45164 -8.87575 -2.5314 -26.9642 -28.6011 -0.0 0.0 -0.0 10.1726 7.66481 -20.2213 -19.7801 5.29277 -58.5028 1.03139 27.0627 -0.248218 -29.2207 1.88437 -3.18406 -2.71751 0.242893 18.5945 0.0 0.0 0.0 37.4035 -16.1224 1.32641 -19.4729 0.301537 2.9587 24.7724 23.1723 -3.44542 32.343 -0.0 -0.0 -0.0 0.0 -0.0 20.8909 2.08626 -0.553187 -53.0566 1.49867 -7.71753 38.8804 -17.5497 4.87316 23.1941 -0.0 -0.0 0.0 0.0 0.0 
3041.64103511 684.395 -1856.18602448 -15.4821413156 25.2604656524 10.9377862785 6.67938 -0.195938 -0.876723 6.67979 -0.139755 -0.887413 6.68139 -0.0548292 -0.896675 6.68032 -0.195749 -0.876765 -15.6522 10.1858 4.04449 -15.885 17.1668 7.33914 -0.0 0.0 -0.0 8.08883 21.5893 14.2509 -6.06983 21.3463 57.4308 0.5728 -15.8414 0.079694 85.2572 -4.45734 -8.87792 -2.30102 -27.7256 -27.2216 -0.0 0.0 -0.0 9.9482 7.42828 -19.7345 -20.4992 4.92351 -59.8377 0.915726 24.3998 -0.19799 -26.9695 1.68359 -2.97675 -2.34081 -1.24832 15.2365 0.0 0.0 0.0 35.7059 -15.7461 2.14972 -21.3409 0.277293 3.24428 22.4793 22.2521 -3.14508 35.6062 -0.0 -0.0 -0.0 0.0 -0.0 22.5673 8.23503 -3.64623 -56.9407 1.87885 -8.17984 39.0827 -25.6422 5.09977 24.4349 -0.0 -0.0 0.0 0.0 0.0 
3018.95607693 689.787 -1869.74332006 -15.4466281 29.3421633721 11.6196903426 6.59069 -0.150797 -0.89371 6.59112 -0.0936244 -0.901494 6.59202 -0.00615023 -0.906321 6.5909 -0.149204 -0.893977 -16.4333 9.84523 3.84694 -16.6799 16.7086 7.15689 -0.0 0.0 -0.0 7.85971 20.5077 14.0263 -5.45662 19.8847 59.32 0.632077 -17.3861 0.096644 85.2996 -4.46244 -8.87985 -2.10684 -27.7368 -25.8614 -0.0 0.0 -0.0 9.82651 8.5562 -19.469 -20.4574 4.37981 -61.1658 0.689139 18.8489 -0.11439 -23.5302 1.39305 -2.64537 -1.3721 0.551038 9.45106 0.0 0.0 0.0 34.2265 -15.534 2.45705 -22.652 0.25472 3.4442 22.8855 22.0924 -3.19366 35.4145 -0.0 -0.0 -0.0 0.0 -0.0 24.7153 10.4134 -4.40242 -58.0763 1.99588 -8.3101 35.2145 -27.2043 4.7522 24.8422 -0.0 -0.0 0.0 0.0 0.0 
2992.2354847 692.907 -1881.30652154 -17.1258898171 31.341523999 13.5481860427 7.23208 -0.383706 -1.11702 7.23272 -0.311854 -1.13917 7.2379 -0.213566 -1.16161 7.23624 -0.39433 -1.11331 -16.7156 9.03164 2.08761 -16.9838 16.1621 5.26276 -0.0 0.0 -0.0 8.0654 18.3403 14.582 -0.985167 19.7699 60.5685 0.626716 -17.2474 0.0950482 85.2526 -4.4568 -8.87771 -1.99515 -28.0899 -25.2064 -0.0 0.0 -0.0 8.48377 7.59522 -16.5982 -24.999 7.64157 -63.4087 0.584904 16.1588 -0.0830303 -19.8252 1.10302 -2.26977 -0.201621 1.88629 2.14955 0.0 0.0 0.0 33.3371 -13.2494 2.1756 -22.061 0.265462 3.35415 24.444 21.2116 -3.373 33.6614 -0.0 -0.0 -0.0 0.0 -0.0 25.2479 12.5819 -4.68238 -56.3338 1.81738 -8.1093 32.0799 -26.5391 4.38573 24.6343 -0.0 -0.0 0.0 0.0 0.0 
